<?xml version="1.0" standalone="no"?>
<!DOCTYPE svg PUBLIC "-//W3C//DTD SVG 20010904//EN"
 "http://www.w3.org/TR/2001/REC-SVG-20010904/DTD/svg10.dtd">
<svg version="1.0" xmlns="http://www.w3.org/2000/svg"
 width="144.000000pt" height="144.000000pt" viewBox="0 0 144.000000 144.000000"
 preserveAspectRatio="xMidYMid meet">
<metadata>
Created by potrace 1.14, written by Peter Selinger 2001-2017
</metadata>
<g transform="translate(0.000000,144.000000) scale(0.100000,-0.100000)"
fill="#000000" stroke="none">
<path d="M157 1373 c-7 -12 1 -107 28 -308 9 -69 18 -112 32 -153 8 -24 14
-51 14 -60 1 -18 -8 -75 -12 -79 -3 -5 -6 -17 -14 -61 -4 -23 -11 -45 -16 -47
-4 -3 -19 -29 -33 -59 -14 -29 -32 -59 -41 -66 -8 -7 -15 -18 -15 -25 0 -8 -3
-15 -7 -17 -9 -3 -43 -62 -43 -73 0 -4 19 -4 43 0 l42 6 -52 -33 c-29 -18 -53
-36 -53 -40 0 -4 18 -18 40 -30 28 -16 39 -28 36 -40 -3 -12 9 -23 40 -38 24
-12 50 -23 56 -24 7 -2 20 -6 28 -9 8 -3 33 -9 55 -13 22 -4 45 -8 50 -9 27
-6 122 -26 141 -29 12 -3 30 -9 40 -15 11 -6 30 -16 44 -22 14 -5 45 -21 70
-34 64 -33 152 -30 209 8 22 15 47 27 55 27 7 0 19 6 25 14 7 8 31 18 54 21
23 4 50 9 60 11 9 2 27 6 40 9 12 2 56 12 97 22 41 9 78 16 83 15 4 -1 7 3 7
8 0 5 3 9 8 8 13 -4 80 33 86 47 3 9 0 12 -10 8 -7 -3 -14 -1 -14 5 0 5 10 12
23 16 12 3 33 15 45 27 l23 21 -53 34 c-42 27 -48 34 -30 34 13 0 32 -5 44
-11 18 -10 19 -8 13 12 -4 13 -28 55 -53 93 -50 78 -99 177 -106 216 -2 14 -9
44 -14 68 -12 52 -12 55 -2 67 11 15 35 120 46 205 3 25 7 56 10 70 5 32 17
156 18 195 1 24 -3 30 -19 29 -91 -6 -269 -82 -351 -149 -42 -35 -72 -40 -104
-20 -18 11 -205 6 -205 -5 0 -1 -11 -3 -24 -6 -16 -3 -37 6 -67 31 -53 44
-159 97 -245 124 -88 27 -117 32 -122 24z"/>
</g>
</svg>
